<svg width="30" height="30" viewBox="0 0 30 30" fill="none" xmlns="http://www.w3.org/2000/svg">
<path fill-rule="evenodd" clip-rule="evenodd" d="M11.5817 0.354589C11.7791 0.121305 12.0685 0 12.374 0C13.3473 0 13.963 1.23598 13.4816 2.08181C13.0258 2.88264 12.5159 3.91333 12.0418 5.17185C11.7827 5.85971 12.3726 6.54944 13.1053 6.49017C13.7188 6.44054 14.3506 6.41386 15 6.41386C15.5782 6.41386 16.1424 6.43461 16.6922 6.47352C17.4208 6.5251 18.0015 5.83723 17.7434 5.1539C17.2713 3.90353 16.764 2.87882 16.3104 2.08181C15.8289 1.23598 16.4447 0 17.418 0C17.7235 0 18.0129 0.121305 18.2103 0.354589C18.9246 1.19911 20.7074 3.52447 21.9791 7.03264C22.0878 7.33246 22.328 7.56774 22.63 7.6701C26.2974 8.91305 28.7355 10.733 29.6245 11.4677C29.8706 11.6711 30 11.9741 30 12.2933C30 13.298 28.722 13.9351 27.8467 13.4419C27.0089 12.9698 25.9278 12.4432 24.6058 11.9601C23.9179 11.7087 23.2349 12.3 23.2964 13.0298C23.35 13.6669 23.3789 14.3239 23.3789 15C23.3789 15.6051 23.3562 16.1949 23.3137 16.7688C23.26 17.4946 23.9411 18.0766 24.6244 17.8263C25.938 17.3451 27.0128 16.8212 27.8467 16.3513C28.722 15.8581 30 16.4952 30 17.4999C30 17.8191 29.8706 18.1221 29.6245 18.3255C28.7442 19.053 26.3451 20.8445 22.7375 22.0864C22.432 22.1915 22.1909 22.4327 22.0857 22.7381C20.8439 26.3454 19.0525 28.7443 18.3251 29.6245C18.1217 29.8706 17.8187 30 17.4994 30C16.4948 30 15.8576 28.722 16.3509 27.8467C16.8207 27.0129 17.3445 25.9383 17.8257 24.6249C18.0761 23.9416 17.494 23.2605 16.7682 23.3142C16.1945 23.3566 15.6049 23.3793 15 23.3793C14.3237 23.3793 13.6665 23.3504 13.0291 23.2967C12.2993 23.2353 11.708 23.9182 11.9594 24.6061C12.4425 25.928 12.969 27.009 13.4411 27.8467C13.9344 28.722 13.2972 30 12.2925 30C11.9733 30 11.6703 29.8706 11.4669 29.6245C10.7322 28.7355 8.91233 26.2975 7.66938 22.6301C7.56702 22.3281 7.33175 22.0879 7.03195 21.9793C3.52417 20.7076 1.19905 18.925 0.354589 18.2107C0.121305 18.0134 0 17.724 0 17.4184C0 16.4452 1.23598 15.8294 2.08181 16.3108C2.87866 16.7644 3.90309 17.2715 5.1531 17.7435C5.83644 18.0016 6.52434 17.421 6.47276 16.6923C6.43384 16.1425 6.41309 15.5782 6.41309 15C6.41309 14.3509 6.43973 13.7195 6.48931 13.1063C6.54855 12.3737 5.8588 11.7838 5.17095 12.0429C3.91284 12.5169 2.88245 13.0267 2.08181 13.4824C1.23598 13.9638 0 13.348 0 12.3748C0 12.0692 0.121305 11.7798 0.354589 11.5825C1.20753 10.861 3.57102 9.04966 7.13799 7.77577C7.4344 7.66991 7.66874 7.43555 7.77458 7.13914C9.0485 3.57153 10.8602 1.20763 11.5817 0.354589ZM11.391 10.5536C10.9508 10.6057 10.6048 10.9518 10.5528 11.3919C10.4202 12.513 10.3441 13.7158 10.3441 15C10.3441 16.2018 10.4108 17.3323 10.528 18.3914C10.577 18.8342 10.9237 19.1839 11.3661 19.2366C12.4945 19.371 13.706 19.4483 15 19.4483C16.2111 19.4483 17.3499 19.3806 18.416 19.2617C18.8612 19.2121 19.2116 18.8617 19.2612 18.4165C19.3802 17.3503 19.4479 16.2113 19.4479 15C19.4479 13.7063 19.3706 12.4951 19.2363 11.3669C19.1836 10.9244 18.8339 10.5777 18.391 10.5287C17.3321 10.4115 16.2016 10.3449 15 10.3449C13.7155 10.3449 12.5123 10.421 11.391 10.5536Z" fill="black"/>
</svg>
