<svg width="49" height="20" viewBox="0 0 49 20" fill="none" xmlns="http://www.w3.org/2000/svg">
<path d="M0.730625 2.74V0.38H11.8506V2.74H7.57063V15H5.01063V2.74H0.730625ZM14.7486 15L11.5486 5.12H14.0886L15.3886 9.36C15.6086 10.14 15.8086 11 15.9886 11.92C16.1686 10.96 16.3486 10.34 16.6686 9.36L18.0286 5.12H20.5086L21.8286 9.36C21.9486 9.76 22.3486 11.24 22.4686 11.9C22.6286 11.16 22.9486 9.98 23.1286 9.36L24.4486 5.12H27.0286L23.6086 15H21.3286L19.9686 10.72C19.5686 9.42 19.3486 8.48 19.2686 7.98C19.1686 8.44 18.9886 9.14 18.4886 10.76L17.1286 15H14.7486ZM27.6461 19.58V17.54H29.1061C30.0661 17.54 30.6661 17.32 31.0861 16.16L31.3661 15.42L27.3861 5.12H29.9661L32.5061 12.32L35.1861 5.12H37.7061L32.8661 17.2C32.1261 19.04 31.0861 19.8 29.4661 19.8C28.7861 19.8 28.1861 19.72 27.6461 19.58ZM41.532 15H39.092V5.12H41.352L41.552 6.4C42.172 5.4 43.372 4.82 44.712 4.82C47.192 4.82 48.472 6.36 48.472 8.92V15H46.032V9.5C46.032 7.84 45.212 7.04 43.952 7.04C42.452 7.04 41.532 8.08 41.532 9.68V15Z" fill="black"/>
</svg>
